<svg version="1.2" xmlns="http://www.w3.org/2000/svg" viewBox="0 0 345 345" width="345" height="345">
	<title>New-Project-svg</title>
	<style>
		.s0 { fill: #000000 } 
	</style>
	<g id="Layer">
		<path id="Layer" fill-rule="evenodd" class="s0" d="m191.5 13c74.9 8.4 133.5 59.8 148.7 130.4 3.1 14.6 3.1 44.6 0 59.2-7.4 34.3-25.7 65.7-51.2 88-36.7 32-87.1 47.8-135.5 42.4-74.9-8.4-133.5-59.8-148.7-130.4-3.1-14.6-3.1-44.6 0-59.2 5.9-27.5 18.5-52.7 36.9-73.7 26.7-30.5 68.1-51.7 110.3-56.6 10.7-1.2 29-1.3 39.5-0.1zm-17.5 55h-51v10c0 8 0.3 10 1.4 10 0.9 0 1.8-1.9 2.6-5.2 1.9-9.3-0.2-8.8 36.7-8.8 19.1 0 32.3 0.4 32.3 0.9 0 0.5-18.2 29.1-40.5 63.6-22.3 34.4-40.5 62.8-40.5 63.1 0 0.2 10.7 0.5 23.8 0.6l23.7 0.3 0.3 30.2 0.2 30.1-2.6 2.1c-1.4 1.1-4.8 2.4-7.5 2.7-3.2 0.4-4.9 1.1-4.9 2 0 1.2 4.4 1.4 24.5 1.4 20.1 0 24.5-0.2 24.5-1.4 0-0.9-1.7-1.6-4.9-2-2.7-0.3-6.1-1.6-7.5-2.7l-2.6-2v-60.9l21.7-0.2 21.6-0.3 2.8-9c3.4-10.7 3.4-10.5 1.1-10.5-1.1 0-2.5 1.4-3.5 3.9-1 2.2-3.6 5.6-5.8 7.5l-4 3.6-16.7-0.2-16.7-0.3-0.3-27.3-0.2-27.2h20c19.9 0 20 0 21.5 2.4 0.9 1.3 1.8 4.7 2.2 7.5 0.4 3.3 1 5.1 1.9 5.1 1.1 0 1.4-2.4 1.4-11v-11h-44.7l-20.8 32.4-0.5 14.5-0.5 14.6-8.9 0.3c-4.9 0.2-9.3-0.1-9.7-0.5-0.4-0.4 17.7-29.3 40.2-64.1 22.5-34.8 40.9-63.5 40.9-63.7 0-0.3-22.9-0.5-51-0.5zm-38.5 67h-19.5v11c0 8.7 0.3 11 1.4 11 0.9 0 1.6-1.8 2-5.3 1.3-9.6 1.5-9.7 17.6-9.7h13.9l2-2.9c1.2-1.6 2.1-3.2 2.1-3.5 0-0.3-8.8-0.6-19.5-0.6z"/>
	</g>
</svg>