<?xml version="1.0" standalone="no"?>
<!DOCTYPE svg PUBLIC "-//W3C//DTD SVG 20010904//EN"
 "http://www.w3.org/TR/2001/REC-SVG-20010904/DTD/svg10.dtd">
<svg version="1.0" xmlns="http://www.w3.org/2000/svg"
 width="720.000000pt" height="720.000000pt" viewBox="0 0 720.000000 720.000000"
 preserveAspectRatio="xMidYMid meet">

<g transform="translate(0.000000,720.000000) scale(0.100000,-0.100000)"
fill="#000000" stroke="none">
<path d="M3390 5199 c-422 -49 -836 -261 -1103 -566 -184 -210 -310 -462 -369
-737 -31 -146 -31 -446 0 -592 152 -706 738 -1220 1487 -1304 484 -54 988 104
1355 424 255 223 438 537 512 880 31 146 31 446 0 592 -152 706 -738 1220
-1487 1304 -105 12 -288 11 -395 -1z m730 -554 c0 -2 -184 -289 -409 -637
-225 -348 -406 -637 -402 -641 4 -4 48 -7 97 -5 l89 3 5 146 5 145 104 162
104 162 224 0 223 0 0 -110 c0 -86 -3 -110 -14 -110 -9 0 -15 18 -19 51 -4 28
-13 62 -22 75 -15 24 -16 24 -215 24 l-200 0 2 -272 3 -273 167 -3 167 -2 40
36 c22 19 48 53 58 75 10 25 24 39 35 39 23 0 23 2 -11 -105 l-28 -90 -216 -3
-217 -2 0 -304 0 -305 26 -20 c14 -11 48 -24 75 -27 32 -4 49 -11 49 -20 0
-12 -44 -14 -245 -14 -201 0 -245 2 -245 14 0 9 17 16 49 20 27 3 61 16 75 27
l26 21 -2 301 -3 302 -237 3 c-131 1 -238 4 -238 6 0 3 182 287 405 631 223
345 405 631 405 636 0 5 -132 9 -323 9 -369 0 -348 5 -367 -88 -8 -33 -17 -52
-26 -52 -11 0 -14 20 -14 100 l0 100 510 0 c281 0 510 -2 510 -5z m-700 -671
c0 -3 -9 -19 -21 -35 l-20 -29 -139 0 c-161 0 -163 -1 -176 -97 -4 -35 -11
-53 -20 -53 -11 0 -14 23 -14 110 l0 110 195 0 c107 0 195 -3 195 -6z"/>
</g>
</svg>
